<svg width="20" height="20" viewBox="0 0 20 20" fill="none" xmlns="http://www.w3.org/2000/svg">
<path d="M11.4417 10.475L14.6417 8.325C14.9417 8.125 15.0917 7.85 15.0917 7.5C15.0917 7.15 14.9417 6.875 14.6417 6.675L11.4417 4.525C11.1083 4.29167 10.7667 4.275 10.4167 4.475C10.0667 4.675 9.89167 4.975 9.89167 5.375V9.625C9.89167 10.025 10.0667 10.325 10.4167 10.525C10.7667 10.725 11.1083 10.7083 11.4417 10.475ZM3.59167 19.875C3.04167 19.9583 2.546 19.8293 2.10467 19.488C1.66333 19.1467 1.409 18.7007 1.34167 18.15L0.0166667 7.225C-0.05 6.675 0.0833334 6.18333 0.416667 5.75C0.75 5.31667 1.19167 5.06667 1.74167 5L2.89167 4.85V13C2.89167 14.1 3.28333 15.0417 4.06667 15.825C4.85 16.6083 5.79167 17 6.89167 17H16.1917C16.0917 17.4 15.8917 17.746 15.5917 18.038C15.2917 18.33 14.925 18.5007 14.4917 18.55L3.59167 19.875ZM6.89167 15C6.34167 15 5.871 14.8043 5.47967 14.413C5.08833 14.0217 4.89233 13.5507 4.89167 13V2C4.89167 1.45 5.08767 0.979333 5.47967 0.588C5.87167 0.196667 6.34233 0.000666667 6.89167 0H17.8917C18.4417 0 18.9127 0.196 19.3047 0.588C19.6967 0.98 19.8923 1.45067 19.8917 2V13C19.8917 13.55 19.696 14.021 19.3047 14.413C18.9133 14.805 18.4423 15.0007 17.8917 15H6.89167Z" fill="#B1988E"/>
</svg>
