<svg width="9" height="5" viewBox="0 0 9 5" fill="none" xmlns="http://www.w3.org/2000/svg">
<path d="M8.16153 0.219143C8.23105 0.288528 8.28621 0.370945 8.32385 0.461675C8.36149 0.552405 8.38086 0.649667 8.38086 0.747893C8.38086 0.84612 8.36149 0.943382 8.32385 1.03411C8.28621 1.12484 8.23105 1.20726 8.16153 1.27664L4.71903 4.71914C4.64964 4.78867 4.56722 4.84383 4.47649 4.88147C4.38576 4.9191 4.2885 4.93848 4.19028 4.93848C4.09205 4.93848 3.99479 4.9191 3.90406 4.88147C3.81333 4.84383 3.73091 4.78867 3.66153 4.71914L0.219026 1.27664C0.14959 1.20721 0.0945099 1.12477 0.0569313 1.03405C0.0193527 0.943328 1.12652e-05 0.846092 1.12609e-05 0.747894C1.12566e-05 0.649696 0.0193527 0.55246 0.0569313 0.461736C0.0945099 0.371013 0.14959 0.28858 0.219026 0.219144C0.288463 0.149707 0.370895 0.0946277 0.461618 0.0570491C0.552342 0.0194701 0.649578 0.00012813 0.747777 0.000128126C0.845975 0.000128122 0.94321 0.0194701 1.03393 0.0570491C1.12466 0.0946277 1.20709 0.149707 1.27653 0.219144L4.19403 3.12914L7.10403 0.219143C7.39653 -0.0733566 7.87653 -0.0658564 8.16153 0.219143Z" fill="black"/>
</svg>
