<svg width="9" height="5" viewBox="0 0 9 5" fill="none" xmlns="http://www.w3.org/2000/svg">
<path d="M8.16153 4.71933C8.23105 4.64995 8.28621 4.56753 8.32385 4.4768C8.36149 4.38607 8.38086 4.28881 8.38086 4.19058C8.38086 4.09236 8.36149 3.9951 8.32385 3.90437C8.28621 3.81364 8.23105 3.73122 8.16153 3.66183L4.71903 0.219333C4.64964 0.149805 4.56722 0.0946447 4.47649 0.0570086C4.38576 0.0193725 4.2885 -1.78883e-07 4.19028 -1.83176e-07C4.09205 -1.8747e-07 3.99479 0.0193725 3.90406 0.0570085C3.81333 0.0946446 3.73091 0.149805 3.66153 0.219333L0.219026 3.66183C0.14959 3.73127 0.0945099 3.8137 0.0569313 3.90443C0.0193527 3.99515 1.12652e-05 4.09238 1.12609e-05 4.19058C1.12566e-05 4.28878 0.0193527 4.38602 0.0569313 4.47674C0.0945099 4.56746 0.14959 4.6499 0.219026 4.71933C0.288463 4.78877 0.370895 4.84385 0.461618 4.88143C0.552342 4.91901 0.649578 4.93835 0.747777 4.93835C0.845975 4.93835 0.94321 4.91901 1.03393 4.88143C1.12466 4.84385 1.20709 4.78877 1.27653 4.71933L4.19403 1.80933L7.10403 4.71933C7.39653 5.01183 7.87653 5.00433 8.16153 4.71933Z" fill="black"/>
</svg>
