<svg width="14" height="14" viewBox="0 0 14 14" fill="none" xmlns="http://www.w3.org/2000/svg">
<path d="M6.99999 10.1281C6.88333 10.1281 6.77395 10.11 6.67187 10.0739C6.56979 10.0377 6.47499 9.97558 6.3875 9.8875L3.2375 6.7375C3.0625 6.5625 2.9785 6.35833 2.9855 6.125C2.9925 5.89167 3.0765 5.6875 3.2375 5.5125C3.4125 5.3375 3.62046 5.2465 3.86137 5.2395C4.10229 5.2325 4.30995 5.31621 4.48437 5.49063L6.125 7.13125V0.875003C6.125 0.627086 6.20899 0.41942 6.377 0.252003C6.54499 0.0845864 6.75266 0.00058635 6.99999 3.01724e-06C7.24733 -0.000580316 7.45529 0.0834198 7.62387 0.252003C7.79245 0.420586 7.87616 0.628253 7.87499 0.875003V7.13125L9.51562 5.49063C9.69062 5.31563 9.89858 5.23163 10.1395 5.23863C10.3804 5.24563 10.5881 5.33692 10.7625 5.5125C10.9229 5.6875 11.0069 5.89167 11.0145 6.125C11.0221 6.35833 10.9381 6.5625 10.7625 6.7375L7.61249 9.8875C7.52499 9.975 7.4302 10.0371 7.32812 10.0739C7.22604 10.1106 7.11666 10.1287 6.99999 10.1281ZM1.75 14C1.26875 14 0.856916 13.8288 0.514499 13.4864C0.172083 13.144 0.000583333 12.7318 0 12.25V10.5C0 10.2521 0.084 10.0444 0.252 9.877C0.42 9.70958 0.627666 9.62558 0.874999 9.625C1.12233 9.62442 1.33029 9.70842 1.49887 9.877C1.66746 10.0456 1.75117 10.2533 1.75 10.5V12.25H12.25V10.5C12.25 10.2521 12.334 10.0444 12.502 9.877C12.67 9.70958 12.8777 9.62558 13.125 9.625C13.3723 9.62442 13.5803 9.70842 13.7489 9.877C13.9174 10.0456 14.0012 10.2533 14 10.5V12.25C14 12.7312 13.8288 13.1434 13.4864 13.4864C13.1439 13.8294 12.7318 14.0006 12.25 14H1.75Z" fill="#765B50" fill-opacity="0.5"/>
</svg>
