<svg width="13" height="14" viewBox="0 0 13 14" fill="none" xmlns="http://www.w3.org/2000/svg">
<path d="M10.8333 9.8C10.2642 9.8 9.75072 10.017 9.36433 10.3649L4.26833 7.49C4.30444 7.329 4.33333 7.168 4.33333 7C4.33333 6.832 4.30444 6.671 4.26833 6.51L9.36 3.633C9.75 3.983 10.2628 4.2 10.8333 4.2C12.0322 4.2 13 3.262 13 2.1C13 0.938 12.0322 0 10.8333 0C9.63444 0 8.66667 0.938 8.66667 2.1C8.66667 2.268 8.69555 2.429 8.73167 2.59L3.64 5.467C3.25 5.117 2.73722 4.9 2.16667 4.9C0.967778 4.9 0 5.838 0 7C0 8.162 0.967778 9.1 2.16667 9.1C2.73722 9.1 3.25 8.883 3.64 8.533L8.73022 11.4156C8.68967 11.5741 8.66834 11.7367 8.66667 11.9C8.66667 12.3153 8.79374 12.7214 9.03182 13.0667C9.26989 13.412 9.60828 13.6812 10.0042 13.8401C10.4001 13.9991 10.8357 14.0407 11.256 13.9596C11.6763 13.8786 12.0624 13.6786 12.3654 13.3849C12.6684 13.0912 12.8748 12.717 12.9584 12.3097C13.042 11.9023 12.9991 11.4801 12.8351 11.0964C12.6711 10.7126 12.3934 10.3847 12.0371 10.1539C11.6808 9.92316 11.2619 9.8 10.8333 9.8Z" fill="#765B50" fill-opacity="0.5"/>
</svg>
