<svg width="26" height="26" viewBox="0 0 26 26" fill="none" xmlns="http://www.w3.org/2000/svg">
<path d="M8.13778 18.1484C8.46378 18.3786 8.85329 18.5017 9.25237 18.5007C9.65145 18.4997 10.0403 18.3746 10.3652 18.1428C10.6945 17.9023 10.9442 17.5693 11.0811 17.1845L11.9081 14.6445C12.1203 14.0078 12.4776 13.4292 12.9518 12.9543C13.426 12.4795 14.0042 12.1214 14.6405 11.9083L17.2139 11.0758C17.5943 10.9381 17.922 10.6844 18.1507 10.3506C18.3794 10.0168 18.4975 9.61962 18.4885 9.21508C18.4795 8.81055 18.3438 8.41904 18.1006 8.0957C17.8573 7.77237 17.5187 7.53352 17.1325 7.41281L14.5887 6.58401C13.9517 6.37205 13.3728 6.01484 12.8976 5.54061C12.4224 5.06638 12.064 4.48813 11.8507 3.85156L11.0145 1.28376C10.8799 0.905462 10.6307 0.578535 10.3016 0.348462C9.97248 0.118389 9.57985 -0.00338801 9.17831 7.17279e-05C8.77678 0.00353147 8.38631 0.132056 8.06122 0.367765C7.73613 0.603475 7.49259 0.934648 7.36449 1.31521L6.51903 3.90521C6.3068 4.52472 5.95678 5.08799 5.49534 5.55264C5.0339 6.01729 4.47305 6.37119 3.85504 6.58771L1.28354 7.41466C0.905388 7.5496 0.578633 7.79892 0.348636 8.12801C0.118638 8.45711 -0.00319067 8.84965 6.35341e-05 9.25114C0.00331774 9.65262 0.131493 10.0431 0.366795 10.3685C0.602097 10.6938 0.932851 10.9378 1.31314 11.0666L3.85504 11.8898C4.49527 12.1023 5.07671 12.462 5.55257 12.9401C6.02844 13.4183 6.38545 14.0014 6.59489 14.6426L7.43108 17.216C7.56428 17.5934 7.81218 17.919 8.13778 18.1484ZM8.29503 4.43061L9.26999 1.88316L10.084 4.43061C10.3865 5.34281 10.8982 6.17157 11.5783 6.85065C12.2583 7.52973 13.0878 8.04029 14.0004 8.34151L16.6015 9.32201L14.0448 10.149C13.133 10.4525 12.3045 10.9646 11.6253 11.6445C10.9461 12.3243 10.4348 13.1533 10.1321 14.0654L9.16454 16.6147L8.33389 14.0636C8.03539 13.1518 7.52867 12.322 6.85389 11.6401C6.17063 10.9599 5.34018 10.446 4.42669 10.1379L1.87739 9.17216L4.44149 8.33966C5.34174 8.02783 6.15826 7.51323 6.82799 6.83561C7.49254 6.15517 7.99414 5.33289 8.29503 4.43061ZM19.4912 25.6261C19.6805 25.7591 19.8981 25.8463 20.1268 25.8807C20.3556 25.9152 20.5892 25.8959 20.8092 25.8245C21.0292 25.7531 21.2296 25.6314 21.3945 25.4692C21.5594 25.307 21.6843 25.1086 21.7593 24.8898L22.2181 23.4801C22.3175 23.1879 22.482 22.9222 22.6991 22.7031C22.9174 22.4811 23.1838 22.3183 23.4761 22.2221L24.9043 21.7559C25.199 21.6541 25.4541 21.462 25.6331 21.2067C25.8122 20.9515 25.906 20.6462 25.9013 20.3345C25.8966 20.0227 25.7935 19.7204 25.6069 19.4707C25.4202 19.221 25.1594 19.0366 24.8618 18.9439L23.4484 18.4814C23.1562 18.3835 22.8906 18.2193 22.6723 18.0017C22.4541 17.7841 22.2891 17.519 22.1904 17.2271L21.7242 15.797C21.6241 15.5029 21.4339 15.2477 21.1807 15.0677C20.9275 14.8877 20.6241 14.7919 20.3134 14.7939C20.0027 14.796 19.7005 14.8957 19.4497 15.0791C19.1989 15.2624 19.0121 15.5201 18.9159 15.8155L18.4589 17.2252C18.3645 17.5152 18.2043 17.7795 17.9909 17.9974C17.7775 18.2153 17.5167 18.3809 17.2287 18.4814L15.7986 18.9476C15.5044 19.0473 15.249 19.2371 15.0686 19.4901C14.8883 19.743 14.7921 20.0464 14.7937 20.357C14.7953 20.6677 14.8947 20.97 15.0777 21.2211C15.2608 21.4721 15.5182 21.6592 15.8134 21.7559L17.225 22.2128C17.521 22.3127 17.7874 22.4774 18.0057 22.6957C18.2258 22.9158 18.3886 23.1822 18.483 23.4764L18.951 24.9083C19.0524 25.1977 19.2411 25.4485 19.4912 25.6261ZM17.8022 20.459L17.471 20.3517L17.8114 20.2333C18.3711 20.0366 18.8786 19.715 19.2953 19.2928C19.712 18.8706 20.027 18.359 20.2164 17.7969L20.3237 17.4676L20.4347 17.8024C20.6236 18.3694 20.942 18.8846 21.3645 19.3072C21.7871 19.7298 22.3023 20.0481 22.8693 20.237L23.2301 20.3536L22.8971 20.4646C22.329 20.6539 21.8129 20.9733 21.3899 21.3972C20.9669 21.8212 20.6487 22.338 20.4606 22.9066L20.3515 23.2414L20.2442 22.9084C20.0563 22.3382 19.7376 21.8199 19.3136 21.3949C18.8895 20.9699 18.3719 20.6501 17.8022 20.4609" fill="#776B66"/>
</svg>
