<svg width="36" height="36" viewBox="0 0 36 36" fill="none" xmlns="http://www.w3.org/2000/svg">
<g opacity="0.4">
<path d="M28.5 19.4998C28.1022 19.4998 27.7206 19.6579 27.4393 19.9392C27.158 20.2205 27 20.602 27 20.9998V21.5698L24.78 19.3498C23.9961 18.5722 22.9367 18.1358 21.8325 18.1358C20.7283 18.1358 19.6689 18.5722 18.885 19.3498L17.835 20.3998L14.115 16.6798C13.3202 15.9233 12.2648 15.5013 11.1675 15.5013C10.0702 15.5013 9.01482 15.9233 8.22 16.6798L6 18.8998V10.4998C6 10.102 6.15804 9.72049 6.43934 9.43918C6.72064 9.15788 7.10218 8.99984 7.5 8.99984H18C18.3978 8.99984 18.7794 8.84181 19.0607 8.5605C19.342 8.2792 19.5 7.89767 19.5 7.49984C19.5 7.10202 19.342 6.72049 19.0607 6.43918C18.7794 6.15788 18.3978 5.99984 18 5.99984H7.5C6.30653 5.99984 5.16193 6.47395 4.31802 7.31786C3.47411 8.16178 3 9.30637 3 10.4998V28.4998C3 29.6933 3.47411 30.8379 4.31802 31.6818C5.16193 32.5257 6.30653 32.9998 7.5 32.9998H25.5C26.6935 32.9998 27.8381 32.5257 28.682 31.6818C29.5259 30.8379 30 29.6933 30 28.4998V20.9998C30 20.602 29.842 20.2205 29.5607 19.9392C29.2794 19.6579 28.8978 19.4998 28.5 19.4998ZM7.5 29.9998C7.10218 29.9998 6.72064 29.8418 6.43934 29.5605C6.15804 29.2792 6 28.8977 6 28.4998V23.1448L10.35 18.7948C10.5704 18.5848 10.8631 18.4677 11.1675 18.4677C11.4719 18.4677 11.7646 18.5848 11.985 18.7948L16.74 23.5498L23.19 29.9998H7.5ZM27 28.4998C26.9968 28.7868 26.9022 29.0653 26.73 29.2948L19.965 22.4998L21.015 21.4498C21.1225 21.3401 21.2509 21.2529 21.3926 21.1934C21.5342 21.1338 21.6863 21.1032 21.84 21.1032C21.9937 21.1032 22.1458 21.1338 22.2874 21.1934C22.4291 21.2529 22.5575 21.3401 22.665 21.4498L27 25.8148V28.4998ZM34.065 6.43484L29.565 1.93484C29.4223 1.79828 29.2541 1.69124 29.07 1.61984C28.7048 1.46982 28.2952 1.46982 27.93 1.61984C27.7459 1.69124 27.5777 1.79828 27.435 1.93484L22.935 6.43484C22.6525 6.7173 22.4939 7.10039 22.4939 7.49984C22.4939 7.8993 22.6525 8.28239 22.935 8.56484C23.2175 8.8473 23.6005 9.00598 24 9.00598C24.3995 9.00598 24.7825 8.8473 25.065 8.56484L27 6.61484V14.9998C27 15.3977 27.158 15.7792 27.4393 16.0605C27.7206 16.3418 28.1022 16.4998 28.5 16.4998C28.8978 16.4998 29.2794 16.3418 29.5607 16.0605C29.842 15.7792 30 15.3977 30 14.9998V6.61484L31.935 8.56484C32.0744 8.70544 32.2403 8.81703 32.4231 8.89318C32.6059 8.96933 32.802 9.00854 33 9.00854C33.198 9.00854 33.3941 8.96933 33.5769 8.89318C33.7597 8.81703 33.9256 8.70544 34.065 8.56484C34.2056 8.4254 34.3172 8.2595 34.3933 8.07671C34.4695 7.89392 34.5087 7.69786 34.5087 7.49984C34.5087 7.30183 34.4695 7.10577 34.3933 6.92298C34.3172 6.74019 34.2056 6.57429 34.065 6.43484Z" fill="black"/>
</g>
</svg>
