<svg width="20" height="20" viewBox="0 0 20 20" fill="none" xmlns="http://www.w3.org/2000/svg">
<path d="M6.15832 13.7339C6.40502 13.9081 6.69979 14.0013 7.00179 14.0005C7.3038 13.9998 7.59809 13.9051 7.84392 13.7297C8.09312 13.5477 8.28212 13.2957 8.38572 13.0045L9.01152 11.0823C9.17211 10.6005 9.44252 10.1626 9.80138 9.80329C10.1602 9.44393 10.5977 9.17294 11.0793 9.0117L13.0267 8.3817C13.3146 8.27746 13.5626 8.0855 13.7356 7.83288C13.9087 7.58026 13.9981 7.27971 13.9913 6.97358C13.9845 6.66744 13.8818 6.37116 13.6977 6.12648C13.5136 5.8818 13.2574 5.70105 12.9651 5.6097L11.0401 4.9825C10.5581 4.82209 10.1199 4.55177 9.76032 4.1929C9.40071 3.83402 9.12951 3.39643 8.96812 2.9147L8.33532 0.971496C8.23343 0.685215 8.04484 0.43781 7.79579 0.263701C7.54674 0.0895917 7.24961 -0.0025639 6.94575 5.42805e-05C6.64189 0.00267246 6.3464 0.0999342 6.10038 0.278309C5.85437 0.456684 5.67007 0.707302 5.57312 0.995296L4.93332 2.9553C4.77271 3.42411 4.50784 3.85037 4.15864 4.202C3.80944 4.55362 3.38501 4.82144 2.91732 4.9853L0.971324 5.6111C0.685159 5.71321 0.437885 5.90188 0.263832 6.15093C0.0897802 6.39997 -0.00241456 6.69703 4.80799e-05 7.00086C0.00251072 7.30469 0.0995084 7.60021 0.277575 7.8464C0.455641 8.09259 0.705941 8.27724 0.993724 8.3747L2.91732 8.9977C3.40183 9.15848 3.84183 9.43073 4.20195 9.79254C4.56206 10.1544 4.83223 10.5956 4.99072 11.0809L5.62352 13.0283C5.72432 13.3139 5.91192 13.5603 6.15832 13.7339ZM6.27732 3.3529L7.01512 1.4251L7.63112 3.3529C7.86005 4.0432 8.24731 4.67038 8.76194 5.18428C9.27657 5.69818 9.90429 6.08455 10.5949 6.3125L12.5633 7.0545L10.6285 7.6803C9.93849 7.91002 9.31154 8.29753 8.79753 8.81203C8.28351 9.32654 7.89659 9.95384 7.66752 10.6441L6.93532 12.5733L6.30672 10.6427C6.08083 9.9527 5.69737 9.32479 5.18672 8.8087C4.66967 8.29401 4.04122 7.90506 3.34992 7.6719L1.42072 6.9411L3.36112 6.3111C4.0424 6.07511 4.66031 5.68569 5.16712 5.1729C5.67003 4.65797 6.04962 4.0357 6.27732 3.3529ZM14.7501 19.3927C14.8933 19.4934 15.058 19.5594 15.2311 19.5854C15.4042 19.6115 15.581 19.5969 15.7475 19.5429C15.914 19.4888 16.0657 19.3968 16.1905 19.274C16.3152 19.1512 16.4098 19.0011 16.4665 18.8355L16.8137 17.7687C16.8889 17.5476 17.0134 17.3466 17.1777 17.1807C17.3429 17.0127 17.5445 16.8895 17.7657 16.8167L18.8465 16.4639C19.0696 16.3869 19.2626 16.2415 19.3981 16.0483C19.5335 15.8552 19.6046 15.6241 19.601 15.3882C19.5974 15.1523 19.5194 14.9236 19.3782 14.7346C19.2369 14.5456 19.0396 14.4061 18.8143 14.3359L17.7447 13.9859C17.5236 13.9118 17.3226 13.7876 17.1574 13.6229C16.9923 13.4583 16.8675 13.2576 16.7927 13.0367L16.4399 11.9545C16.3642 11.7319 16.2203 11.5388 16.0287 11.4026C15.837 11.2663 15.6074 11.1938 15.3723 11.1954C15.1372 11.1969 14.9085 11.2724 14.7187 11.4112C14.5289 11.55 14.3875 11.7449 14.3147 11.9685L13.9689 13.0353C13.8975 13.2548 13.7763 13.4547 13.6148 13.6196C13.4533 13.7845 13.2559 13.9099 13.0379 13.9859L11.9557 14.3387C11.733 14.4142 11.5398 14.5578 11.4033 14.7492C11.2668 14.9407 11.194 15.1702 11.1952 15.4053C11.1965 15.6404 11.2717 15.8692 11.4102 16.0592C11.5487 16.2492 11.7435 16.3908 11.9669 16.4639L13.0351 16.8097C13.2591 16.8853 13.4607 17.0099 13.6259 17.1751C13.7925 17.3417 13.9157 17.5433 13.9871 17.7659L14.3413 18.8495C14.418 19.0685 14.5609 19.2584 14.7501 19.3927ZM13.4719 15.4825L13.2213 15.4013L13.4789 15.3117C13.9024 15.1629 14.2865 14.9195 14.6018 14.6C14.9172 14.2805 15.1556 13.8933 15.2989 13.4679L15.3801 13.2187L15.4641 13.4721C15.6071 13.9012 15.848 14.2911 16.1678 14.6109C16.4876 14.9306 16.8774 15.1716 17.3065 15.3145L17.5795 15.4027L17.3275 15.4867C16.8976 15.63 16.507 15.8717 16.1869 16.1925C15.8668 16.5133 15.6261 16.9044 15.4837 17.3347L15.4011 17.5881L15.3199 17.3361C15.1777 16.9046 14.9365 16.5124 14.6157 16.1908C14.2948 15.8691 13.9031 15.6271 13.4719 15.4839" fill="#CD9177"/>
</svg>
